<svg width="22" height="22" viewBox="0 0 22 22" fill="none" xmlns="http://www.w3.org/2000/svg">
<path fill-rule="evenodd" clip-rule="evenodd" d="M10.9999 0.333374C5.10888 0.333374 0.333252 5.109 0.333252 11C0.333252 16.8911 5.10888 21.6667 10.9999 21.6667C16.891 21.6667 21.6666 16.8911 21.6666 11C21.6666 5.109 16.891 0.333374 10.9999 0.333374ZM8.39067 8.23698V16.3334H5.81833V8.23698H8.39067ZM8.56021 5.73227C8.56021 6.50919 8.00185 7.1309 7.10484 7.1309H7.08806C6.2248 7.1309 5.66658 6.50923 5.66658 5.73227C5.66658 4.93783 6.24197 4.33337 7.12187 4.33337C8.00189 4.33337 8.54349 4.93782 8.56021 5.73227ZM12.3868 16.3334H9.81444L9.8145 16.3332C9.8145 16.3332 9.84825 8.99657 9.8145 8.23685H12.3868V9.3832C12.7287 8.83153 13.3406 8.04692 14.7051 8.04692C16.3975 8.04692 17.6666 9.20405 17.6666 11.6909V16.3333H15.0944V12.0019C15.0944 10.9135 14.722 10.1711 13.7912 10.1711C13.0806 10.1711 12.6574 10.6718 12.4714 11.1553C12.4035 11.3282 12.3868 11.57 12.3868 11.812V16.3334Z" fill="white"/>
</svg>
