<svg width="22" height="22" viewBox="0 0 22 22" fill="none" xmlns="http://www.w3.org/2000/svg">
<path fill-rule="evenodd" clip-rule="evenodd" d="M10.9999 0.333374C5.10888 0.333374 0.333252 5.109 0.333252 11C0.333252 16.8911 5.10888 21.6667 10.9999 21.6667C16.891 21.6667 21.6666 16.8911 21.6666 11C21.6666 5.109 16.891 0.333374 10.9999 0.333374ZM16.2526 7.35338C16.7505 7.28828 17.2251 7.14359 17.6665 6.9294C17.3365 7.46943 16.9191 7.94364 16.4382 8.32322C16.4429 8.43879 16.4453 8.55488 16.4453 8.67163C16.4453 12.2302 13.9689 16.3334 9.44053 16.3334C8.05021 16.3334 6.75613 15.8876 5.66658 15.1235C5.85919 15.1483 6.05515 15.1611 6.25387 15.1611C7.40737 15.1611 8.46889 14.7306 9.31147 14.0083C8.23411 13.9867 7.32493 13.2082 7.01161 12.1384C7.16197 12.1697 7.31617 12.1867 7.47481 12.1867C7.69933 12.1867 7.91683 12.1538 8.12341 12.0922C6.99715 11.8447 6.14851 10.7564 6.14851 9.45174V9.45168C6.14851 9.44034 6.14851 9.42908 6.14879 9.41787C6.48071 9.61955 6.86033 9.74069 7.26389 9.75467C6.60329 9.27179 6.16865 8.44758 6.16865 7.51332C6.16865 7.0198 6.29009 6.55726 6.50201 6.15956C7.71629 7.78875 9.53033 8.86083 11.5765 8.97312C11.5345 8.77604 11.5127 8.5705 11.5127 8.35944C11.5127 6.87234 12.6151 5.66671 13.9747 5.66671C14.6828 5.66671 15.3226 5.99366 15.7717 6.51703C16.3325 6.39628 16.8593 6.17223 17.3351 5.86359C17.1513 6.49243 16.7609 7.02013 16.2526 7.35338ZM17.6665 6.9294C17.6665 6.92939 17.6666 6.92938 17.6666 6.92937H17.6665C17.6665 6.92938 17.6665 6.92939 17.6665 6.9294Z" fill="white"/>
</svg>
