<svg width="25" height="25" viewBox="0 0 25 25" fill="none" xmlns="http://www.w3.org/2000/svg">
<path d="M12.52 0.5C5.629 0.5 0.0400391 6.00883 0.0400391 12.8034C0.0400391 18.2394 3.61556 22.8511 8.57532 24.4782C9.19828 24.592 9.40004 24.2106 9.40004 23.8866V21.5962C5.92852 22.3405 5.20572 20.1444 5.20572 20.1444C4.63788 18.7223 3.8194 18.344 3.8194 18.344C2.68684 17.5801 3.90572 17.5965 3.90572 17.5965C5.15892 17.6827 5.81828 18.8648 5.81828 18.8648C6.93108 20.7452 8.73756 20.2018 9.44996 19.887C9.56124 19.0924 9.88468 18.549 10.2424 18.2425C7.47084 17.9298 4.55676 16.8748 4.55676 12.1615C4.55676 10.8174 5.04452 9.72035 5.8422 8.85911C5.71324 8.54845 5.2858 7.29658 5.96388 5.60282C5.96388 5.60282 7.0122 5.27268 9.39692 6.86391C10.3922 6.59119 11.4592 6.45483 12.52 6.4497C13.5808 6.45483 14.6489 6.59119 15.6463 6.86391C18.0289 5.27268 19.0752 5.60282 19.0752 5.60282C19.7543 7.29761 19.3268 8.54948 19.1979 8.85911C19.9987 9.72035 20.4823 10.8184 20.4823 12.1615C20.4823 16.8871 17.563 17.9277 14.7841 18.2322C15.2313 18.6136 15.64 19.3621 15.64 20.5104V23.8866C15.64 24.2137 15.8397 24.5982 16.4731 24.4772C21.4287 22.848 25 18.2374 25 12.8034C25 6.00883 19.4121 0.5 12.52 0.5Z" fill="#A3A8B8"/>
</svg>
