<svg width="25" height="25" viewBox="0 0 25 25" fill="none" xmlns="http://www.w3.org/2000/svg">
<path d="M21.7614 24.4998C15.9163 24.4998 10.0759 24.4998 4.23084 24.4998C4.19328 24.4857 4.16041 24.4669 4.12285 24.4575C2.67215 24.2181 1.70032 23.401 1.18858 22.0298C1.09938 21.7857 1.05713 21.5227 0.996094 21.2644C1.00079 15.4229 1.00079 9.5767 1.00079 3.73519C1.01487 3.69762 1.03365 3.66475 1.04304 3.62718C1.33882 1.78175 2.79891 0.504509 4.65807 0.504509C10.2168 0.495117 15.7801 0.499813 21.3388 0.509205C21.7473 0.509205 22.1698 0.579641 22.5548 0.711122C24.0712 1.23235 24.9961 2.57534 24.9961 4.20946C25.0008 8.02711 24.9961 11.8494 24.9961 15.6671C24.9961 17.3857 25.0008 19.1044 24.9961 20.823C24.9914 22.4478 24.043 23.7814 22.5313 24.3073C22.2825 24.3918 22.0196 24.4341 21.7614 24.4998ZM14.9351 19.5646C14.9351 19.4425 14.9351 19.3392 14.9351 19.2406C14.9444 17.2167 14.9351 15.1928 14.9679 13.1737C14.982 12.3613 15.4421 11.7837 16.1839 11.4597C17.0994 11.0606 18.0806 11.4174 18.4609 12.3049C18.6111 12.6524 18.7003 13.0563 18.705 13.4366C18.7332 15.3807 18.7238 17.3247 18.7285 19.2687C18.7285 19.3627 18.7285 19.4519 18.7285 19.5505C19.9444 19.5505 21.1322 19.5505 22.3341 19.5505C22.3341 19.4378 22.3341 19.3439 22.3341 19.2547C22.3341 17.428 22.3388 15.6014 22.3294 13.77C22.3294 13.2957 22.32 12.8168 22.2684 12.3425C22.1745 11.4691 21.9163 10.6473 21.3811 9.93358C20.7238 9.06017 19.8224 8.61407 18.7473 8.49668C17.2214 8.32763 15.9585 8.77373 15.0618 10.0698C15.0337 10.112 15.0243 10.1637 15.0102 10.2153C14.982 10.1918 14.9538 10.1731 14.921 10.1496C14.921 9.67531 14.921 9.20574 14.921 8.72677C13.7144 8.72677 12.5313 8.72677 11.3435 8.72677C11.3435 12.3472 11.3435 15.9488 11.3435 19.5552C12.5407 19.5646 13.7191 19.5646 14.9351 19.5646ZM9.32004 19.5646C9.32004 15.9441 9.32004 12.3425 9.32004 8.73147C8.11816 8.73147 6.93506 8.73147 5.74727 8.73147C5.74727 12.3472 5.74727 15.9535 5.74727 19.5646C6.93975 19.5646 8.11816 19.5646 9.32004 19.5646ZM7.54539 3.46753C7.30126 3.51449 7.04774 3.53327 6.81299 3.6084C6.14633 3.81971 5.70032 4.2752 5.56417 4.96547C5.42802 5.66984 5.60173 6.29907 6.1698 6.77804C6.67684 7.20535 7.27309 7.27109 7.91159 7.21004C9.04304 7.09735 9.81299 5.97976 9.50314 4.89034C9.24492 3.99815 8.536 3.49101 7.54539 3.46753Z" fill="#A3A8B8"/>
</svg>
