<svg width="25" height="25" viewBox="0 0 25 25" fill="none" xmlns="http://www.w3.org/2000/svg">
<path d="M12.2996 0.5C12.7717 0.5 13.2438 0.5 13.7006 0.5C13.7616 0.515228 13.8225 0.530457 13.8834 0.545685C15.3453 0.637056 16.7463 0.98731 18.0712 1.64213C21.7717 3.45431 24.0255 6.37817 24.8174 10.4289C24.9088 10.8858 24.9392 11.3579 25.0001 11.8147C25.0001 12.2868 25.0001 12.7589 25.0001 13.2157C24.9849 13.2766 24.9697 13.3528 24.9544 13.4137C24.8326 15.0888 24.4062 16.6726 23.5839 18.1345C21.3758 22.0635 18.0103 24.2107 13.5027 24.4848C11.3402 24.6218 9.2844 24.1497 7.39607 23.099C3.45191 20.8909 1.3047 17.5102 1.01536 13.0025C0.878303 10.8401 1.35038 8.76904 2.40115 6.86548C4.27424 3.48477 7.10673 1.41371 10.9138 0.682741C11.3707 0.606599 11.8275 0.560914 12.2996 0.5ZM21.1778 5.70812C20.5077 6.08883 19.8529 6.34772 19.1676 6.51523C19.0001 6.56091 18.8935 6.53046 18.7565 6.40863C17.6905 5.44924 16.457 5.19036 15.1321 5.66244C13.792 6.14975 13.0001 7.15482 12.8174 8.58629C12.7717 8.98223 12.8022 9.3934 12.8022 9.80457C9.8783 9.6066 7.45698 8.35787 5.5382 6.10406C5.14226 6.80457 4.98998 7.53553 5.08135 8.29695C5.20318 9.34772 5.72094 10.1853 6.58896 10.8096C6.57374 10.8401 6.55851 10.8553 6.54328 10.8858C6.04074 10.7487 5.5382 10.6117 5.02044 10.4594C5.02044 11.2665 5.27932 11.9975 5.79708 12.6523C6.31485 13.2919 6.9849 13.703 7.77678 13.9315C7.53313 13.9772 7.28947 14.0228 7.03059 14.0381C6.78693 14.0533 6.54328 14.0381 6.2844 14.0381C6.51282 14.7386 6.93922 15.302 7.5179 15.7437C8.09658 16.1853 8.76663 16.4137 9.51282 16.4746C8.00521 17.6472 6.29962 18.1041 4.4113 17.9822C4.83769 18.2259 5.24886 18.4695 5.67526 18.6675C7.67018 19.5508 9.72602 19.7487 11.858 19.3376C14.4011 18.8503 16.4265 17.5254 17.9189 15.4239C19.259 13.5508 19.9291 11.434 19.8834 9.11929C19.8834 9.02792 19.9443 8.92132 20.0052 8.84518C20.2489 8.61675 20.523 8.41878 20.7514 8.17513C21.056 7.85533 21.3301 7.5203 21.6194 7.17005C20.9494 7.35279 20.325 7.5203 19.7006 7.68782C19.6854 7.65736 19.6854 7.64213 19.6702 7.61168C20.3859 7.17005 20.8885 6.56091 21.1778 5.70812Z" fill="#A3A8B8"/>
</svg>
